<?xml version="1.0" encoding="iso-8859-1"?>
<!-- Generator: Adobe Illustrator 19.0.0, SVG Export Plug-In . SVG Version: 6.00 Build 0)  -->
<svg version="1.1" id="Layer_1" xmlns="http://www.w3.org/2000/svg" xmlns:xlink="http://www.w3.org/1999/xlink" x="0px" y="0px"
	 viewBox="0 0 512 512" style="enable-background:new 0 0 512 512;" xml:space="preserve">
<polygon style="fill:#FDDF7F;" points="474.187,163.204 443.96,404.728 68.04,404.728 37.813,163.204 165.466,298.397 256,163.204 
	346.534,298.397 "/>
<g>
	<circle style="fill:#FC6760;" cx="256" cy="135.14" r="27.863"/>
	<circle style="fill:#FC6760;" cx="38.063" cy="135.14" r="27.863"/>
	<circle style="fill:#FC6760;" cx="473.937" cy="135.14" r="27.863"/>
</g>
<g>
	<path style="fill:#00537B;" d="M512,135.137c0-20.988-17.074-38.062-38.062-38.062c-20.987,0-38.061,17.074-38.061,38.062
		c0,14.231,7.855,26.655,19.453,33.185L347.896,282.1l-75.435-112.647c12.769-6.15,21.603-19.22,21.603-34.316
		c0-20.988-17.074-38.062-38.062-38.062s-38.062,17.074-38.062,38.062c0,15.096,8.834,28.166,21.603,34.316L164.105,282.1
		L56.672,168.323c11.598-6.53,19.453-18.953,19.453-33.185c0-20.988-17.074-38.062-38.061-38.062C17.074,97.075,0,114.149,0,135.137
		c0,17.735,12.193,32.674,28.636,36.879L57.92,405.994c0.639,5.104,4.977,8.932,10.121,8.932h375.92
		c5.143,0,9.481-3.829,10.121-8.932l29.283-233.977C499.807,167.812,512,152.873,512,135.137z M256,117.473
		c9.74,0,17.664,7.924,17.664,17.664c0,9.74-7.925,17.664-17.664,17.664s-17.664-7.925-17.664-17.664S246.26,117.473,256,117.473z
		 M20.398,135.137c0-9.74,7.925-17.664,17.664-17.664s17.663,7.924,17.663,17.664s-7.924,17.664-17.663,17.664
		S20.398,144.878,20.398,135.137z M434.958,394.529H77.042l-2.093-16.721h282.45c5.632,0,10.199-4.566,10.199-10.199
		s-4.567-10.199-10.199-10.199H72.396L51.805,192.878L158.05,305.399c2.13,2.256,5.164,3.421,8.264,3.162
		c3.092-0.258,5.899-1.91,7.626-4.489L256,181.534l82.06,122.539c1.726,2.578,4.533,4.23,7.626,4.489
		c3.08,0.261,6.134-0.906,8.264-3.162l106.245-112.522L434.958,394.529z M473.938,152.801c-9.74,0-17.663-7.925-17.663-17.664
		s7.924-17.664,17.663-17.664c9.739,0,17.664,7.924,17.664,17.664C491.602,144.878,483.677,152.801,473.938,152.801z"/>
	<path style="fill:#00537B;" d="M390.897,377.808h6.338c5.632,0,10.199-4.566,10.199-10.199s-4.567-10.199-10.199-10.199h-6.338
		c-5.632,0-10.199,4.566-10.199,10.199S385.264,377.808,390.897,377.808z"/>
</g>
<g>
</g>
<g>
</g>
<g>
</g>
<g>
</g>
<g>
</g>
<g>
</g>
<g>
</g>
<g>
</g>
<g>
</g>
<g>
</g>
<g>
</g>
<g>
</g>
<g>
</g>
<g>
</g>
<g>
</g>
</svg>
